<?xml version="1.0" encoding="UTF-8"?>
<svg version="1.1" xmlns="http://www.w3.org/2000/svg" width="50" height="50">
<path d="M0 0 C16.5 0 33 0 50 0 C50 16.5 50 33 50 50 C33.5 50 17 50 0 50 C0 33.5 0 17 0 0 Z " fill="#090E07" transform="translate(0,0)"/>
<path d="M0 0 C0.33 0 0.66 0 1 0 C1 9.24 1 18.48 1 28 C-15.5 28 -32 28 -49 28 C-49 22.72 -49 17.44 -49 12 C-48.34 12 -47.68 12 -47 12 C-46.47019531 12.97710937 -45.94039062 13.95421875 -45.39453125 14.9609375 C-43.22825658 18.39543382 -43.22825658 18.39543382 -39.13671875 18.7265625 C-37.65326185 18.72391583 -36.16957598 18.68904823 -34.6875 18.625 C-33.95337891 18.63144531 -33.21925781 18.63789062 -32.46289062 18.64453125 C-26.93477993 18.53661782 -23.59156614 17.04486949 -19 14 C-19 15.32 -19 16.64 -19 18 C-15.04636614 18.38761116 -12.77376539 18.52842515 -9.4375 16.25 C-6.21395755 12.56595149 -4.310459 7.93447522 -2.234375 3.546875 C-1 1 -1 1 0 0 Z " fill="#030402" transform="translate(49,22)"/>
<path d="M0 0 C1.65 0.33 3.3 0.66 5 1 C4.855625 1.825 4.71125 2.65 4.5625 3.5 C3.94746848 7.32686278 3.46439363 11.15216707 3 15 C3.99 15 4.98 15 6 15 C6.30292969 14.00097656 6.60585937 13.00195312 6.91796875 11.97265625 C7.34004373 10.66891352 7.76328163 9.36554688 8.1875 8.0625 C8.38408203 7.40314453 8.58066406 6.74378906 8.78320312 6.06445312 C9.41796875 4.16015625 9.41796875 4.16015625 11 1 C13.67578125 0.05859375 13.67578125 0.05859375 16 0 C17.40843182 4.54577694 16.4862514 7.04271032 14.5625 11.3125 C14.08941406 12.38113281 13.61632812 13.44976562 13.12890625 14.55078125 C12.75636719 15.35902344 12.38382813 16.16726562 12 17 C15.31585512 16.05976591 16.69940073 15.48505791 18.546875 12.50390625 C18.94390625 11.53324219 19.3409375 10.56257813 19.75 9.5625 C20.15734375 8.59441406 20.5646875 7.62632813 20.984375 6.62890625 C21.70258497 4.76984736 22.36976786 2.89069642 23 1 C25.475 1.495 25.475 1.495 28 2 C27.46391344 9.50521191 25.53102368 14.75521825 20.89453125 20.69921875 C17.00193969 23.79332999 14.26815957 23.74939467 9.4375 23.625 C8.68275391 23.64433594 7.92800781 23.66367187 7.15039062 23.68359375 C3.19331281 23.64872963 1.40279181 23.39449341 -1.46484375 20.5859375 C-3.98934775 16.33346512 -4.39967184 14.03586517 -4 9 C-2.87030011 5.89209201 -1.49676225 2.94675067 0 0 Z " fill="#E7E561" transform="translate(5,18)"/>
<path d="M0 0 C0.7857843 -0.00807175 1.5715686 -0.01614349 2.38116455 -0.02445984 C4.04900902 -0.03831824 5.71688206 -0.04903251 7.38476562 -0.05688477 C9.92893877 -0.07405552 12.47179826 -0.11791829 15.015625 -0.16210938 C16.6354071 -0.17223978 18.25520027 -0.18075479 19.875 -0.1875 C20.63351257 -0.20500809 21.39202515 -0.22251617 22.17352295 -0.24055481 C25.90126229 -0.22534756 27.99475543 0.10432693 31.16113281 2.13989258 C33.82915046 4.88159651 34.15767278 5.74739727 34.515625 9.61328125 C34.41324542 16.62628251 32.03253763 24.23408012 27.890625 29.92578125 C24.63463117 32.72745036 22.4401908 33.07212181 18.203125 33.23828125 C17.708125 30.76328125 17.708125 30.76328125 17.203125 28.23828125 C18.110625 27.94953125 19.018125 27.66078125 19.953125 27.36328125 C24.63054855 24.30496585 25.80303723 20.52661277 27.203125 15.23828125 C27.52309074 12.72812752 27.4733334 10.77824017 27.203125 8.23828125 C25.19808991 6.23324616 21.20287056 6.98239462 18.44921875 6.921875 C17.67377213 6.9010939 16.8983255 6.88031281 16.09938049 6.85890198 C13.61322192 6.79332323 11.12695455 6.73448326 8.640625 6.67578125 C6.95897296 6.63260392 5.27733206 6.58898989 3.59570312 6.54492188 C-0.53504371 6.43763346 -4.66590036 6.33638993 -8.796875 6.23828125 C-8.839596 4.5721622 -8.83751332 2.9044524 -8.796875 1.23828125 C-6.78666608 -0.77192767 -2.75703105 0.02656633 0 0 Z " fill="#15D38B" transform="translate(13.796875,7.76171875)"/>
<path d="M0 0 C1.51815699 0.00015911 3.0363194 0.00585313 4.55444336 0.01586914 C5.35208603 0.01728409 6.1497287 0.01869904 6.97154236 0.02015686 C9.52916146 0.02577223 12.08669429 0.03832727 14.64428711 0.05102539 C16.37410356 0.05603841 18.10392137 0.06060166 19.83374023 0.06469727 C24.08312264 0.07574664 28.33244023 0.09302153 32.58178711 0.11352539 C32.58178711 0.44352539 32.58178711 0.77352539 32.58178711 1.11352539 C29.94178711 1.44352539 27.30178711 1.77352539 24.58178711 2.11352539 C24.58178711 2.77352539 24.58178711 3.43352539 24.58178711 4.11352539 C27.05678711 4.60852539 27.05678711 4.60852539 29.58178711 5.11352539 C29.58178711 5.44352539 29.58178711 5.77352539 29.58178711 6.11352539 C18.36178711 6.11352539 7.14178711 6.11352539 -4.41821289 6.11352539 C-4.41821289 0.1467373 -4.41821289 0.1467373 0 0 Z " fill="#49CA7C" transform="translate(9.418212890625,7.886474609375)"/>
<path d="M0 0 C5.61 0 11.22 0 17 0 C16.67 1.65 16.34 3.3 16 5 C10.72 5 5.44 5 0 5 C0 3.35 0 1.7 0 0 Z " fill="#8CE37C" transform="translate(5,9)"/>
<path d="M0 0 C0.66 0 1.32 0 2 0 C3.31501363 2.16590481 4.03022952 3.50121292 3.875 6.0625 C2.6967058 8.67158002 1.49543284 9.61364842 -1 11 C-3.75 11.1875 -3.75 11.1875 -6 11 C-6.33 9.35 -6.66 7.7 -7 6 C-6.030625 5.566875 -5.06125 5.13375 -4.0625 4.6875 C-0.72268235 3.2985139 -0.72268235 3.2985139 0 0 Z " fill="#6EE07D" transform="translate(38,30)"/>
<path d="M0 0 C1.45792884 -0.05399736 2.91642712 -0.09279177 4.375 -0.125 C5.18710937 -0.14820313 5.99921875 -0.17140625 6.8359375 -0.1953125 C9 0 9 0 11 2 C11.1953125 4.3828125 11.1953125 4.3828125 11.125 7.125 C11.10695313 8.03507812 11.08890625 8.94515625 11.0703125 9.8828125 C11.04710937 10.58148438 11.02390625 11.28015625 11 12 C10.34 12 9.68 12 9 12 C8.71125 11.21625 8.4225 10.4325 8.125 9.625 C7.15087746 6.90328368 7.15087746 6.90328368 5 5 C3.01643517 4.28591666 1.01684563 3.61382258 -1 3 C-0.67 2.01 -0.34 1.02 0 0 Z " fill="#11E99A" transform="translate(34,9)"/>
<path d="M0 0 C1.65 0.33 3.3 0.66 5 1 C4.52060632 5.71403788 4.03165952 9.66579301 2 14 C1.67 14 1.34 14 1 14 C0.690625 13.05125 0.38125 12.1025 0.0625 11.125 C-0.87394742 8.13919592 -0.87394742 8.13919592 -2 6 C-1.39421747 3.98072489 -0.73080266 1.97746603 0 0 Z " fill="#A9EB73" transform="translate(28,19)"/>
<path d="M0 0 C0.66 0 1.32 0 2 0 C2 3.96 2 7.92 2 12 C1.01 12 0.02 12 -1 12 C-2.53224072 9.56644121 -3.03344238 8.34278436 -2.75 5.4375 C-2 3 -2 3 0 0 Z " fill="#41E78C" transform="translate(42,22)"/>
<path d="M0 0 C2.97 0 5.94 0 9 0 C9 1.32 9 2.64 9 4 C6.03 4 3.06 4 0 4 C0 2.68 0 1.36 0 0 Z " fill="#B6F57B" transform="translate(5,9)"/>
<path d="M0 0 C2.31 0 4.62 0 7 0 C6.67 1.65 6.34 3.3 6 5 C3.69 4.34 1.38 3.68 -1 3 C-0.67 2.01 -0.34 1.02 0 0 Z " fill="#26F09B" transform="translate(34,9)"/>
<path d="M0 0 C1.32 0 2.64 0 4 0 C4 0.99 4 1.98 4 3 C4.66 3 5.32 3 6 3 C6 3.66 6 4.32 6 5 C4.35 5 2.7 5 1 5 C0.67 3.35 0.34 1.7 0 0 Z " fill="#87DF79" transform="translate(31,36)"/>
<path d="M0 0 C1.65 0.33 3.3 0.66 5 1 C4.67 1.99 4.34 2.98 4 4 C2.35 3.67 0.7 3.34 -1 3 C-0.67 2.01 -0.34 1.02 0 0 Z " fill="#69F38C" transform="translate(22,9)"/>
<path d="M0 0 C1.5625 1.75 1.5625 1.75 3 4 C2.6875 6.25 2.6875 6.25 2 8 C1.01 7.67 0.02 7.34 -1 7 C-0.67 4.69 -0.34 2.38 0 0 Z " fill="#61EF8A" transform="translate(39,30)"/>
<path d="M0 0 C2.475 0.495 2.475 0.495 5 1 C4.67 3.64 4.34 6.28 4 9 C3.67 9 3.34 9 3 9 C2.8046875 6.94921875 2.609375 4.8984375 2.4140625 2.84765625 C2.27742188 2.23792969 2.14078125 1.62820312 2 1 C1.34 0.67 0.68 0.34 0 0 Z " fill="#4ECD76" transform="translate(28,19)"/>
</svg>
